<?xml version="1.0" encoding="UTF-8" standalone="no"?>
<!DOCTYPE svg PUBLIC "-//W3C//DTD SVG 1.1//EN"
 "http://www.w3.org/Graphics/SVG/1.1/DTD/svg11.dtd">
<!-- Generated by graphviz version 2.44.1 (20200629.0846)
 -->
<!-- Title: G Pages: 1 -->
<svg width="711pt" height="342pt"
 viewBox="0.00 0.00 711.00 342.00" xmlns="http://www.w3.org/2000/svg" xmlns:xlink="http://www.w3.org/1999/xlink">
<g id="graph0" class="graph" transform="scale(1 1) rotate(0) translate(18 324)">
<title>G</title>
<polygon fill="white" stroke="transparent" points="-18,18 -18,-324 693,-324 693,18 -18,18"/>
<!-- github.com/gofiber/fiber/v2 -->
<g id="node1" class="node">
<title>github.com/gofiber/fiber/v2</title>
<polygon fill="lightgrey" stroke="black" points="167,-117 0,-117 0,-81 167,-81 167,-117"/>
<text text-anchor="middle" x="83.5" y="-95.3" font-family="Times,serif" font-size="14.00">github.com/gofiber/fiber/v2</text>
</g>
<!-- github.com/valyala/fasthttp -->
<g id="node2" class="node">
<title>github.com/valyala/fasthttp</title>
<polygon fill="none" stroke="black" points="396,-171 230,-171 230,-135 396,-135 396,-171"/>
<text text-anchor="middle" x="313" y="-149.3" font-family="Times,serif" font-size="14.00">github.com/valyala/fasthttp</text>
</g>
<!-- github.com/gofiber/fiber/v2&#45;&gt;github.com/valyala/fasthttp -->
<g id="edge1" class="edge">
<title>github.com/gofiber/fiber/v2&#45;&gt;github.com/valyala/fasthttp</title>
<path fill="none" stroke="black" d="M160.57,-117.06C181.63,-122.05 204.63,-127.51 226.2,-132.63"/>
<polygon fill="black" stroke="black" points="225.46,-136.06 236,-134.96 227.08,-129.25 225.46,-136.06"/>
</g>
<!-- github.com/valyala/fasthttp/reuseport -->
<g id="node8" class="node">
<title>github.com/valyala/fasthttp/reuseport</title>
<polygon fill="none" stroke="black" points="423,-90 203,-90 203,-54 423,-54 423,-90"/>
<text text-anchor="middle" x="313" y="-68.3" font-family="Times,serif" font-size="14.00">github.com/valyala/fasthttp/reuseport</text>
</g>
<!-- github.com/gofiber/fiber/v2&#45;&gt;github.com/valyala/fasthttp/reuseport -->
<g id="edge7" class="edge">
<title>github.com/gofiber/fiber/v2&#45;&gt;github.com/valyala/fasthttp/reuseport</title>
<path fill="none" stroke="black" d="M167.28,-89.18C175.59,-88.19 184.13,-87.18 192.72,-86.16"/>
<polygon fill="black" stroke="black" points="193.3,-89.61 202.82,-84.96 192.47,-82.66 193.3,-89.61"/>
</g>
<!-- github.com/andybalholm/brotli -->
<g id="node3" class="node">
<title>github.com/andybalholm/brotli</title>
<polygon fill="none" stroke="black" points="660.5,-306 473.5,-306 473.5,-270 660.5,-270 660.5,-306"/>
<text text-anchor="middle" x="567" y="-284.3" font-family="Times,serif" font-size="14.00">github.com/andybalholm/brotli</text>
</g>
<!-- github.com/valyala/fasthttp&#45;&gt;github.com/andybalholm/brotli -->
<g id="edge2" class="edge">
<title>github.com/valyala/fasthttp&#45;&gt;github.com/andybalholm/brotli</title>
<path fill="none" stroke="black" d="M333.01,-171.1C359.28,-195.13 409.1,-237.29 459,-261 463.1,-262.95 467.36,-264.77 471.71,-266.47"/>
<polygon fill="black" stroke="black" points="470.77,-269.85 481.37,-269.99 473.17,-263.27 470.77,-269.85"/>
</g>
<!-- github.com/klauspost/compress/flate -->
<g id="node4" class="node">
<title>github.com/klauspost/compress/flate</title>
<polygon fill="none" stroke="black" points="675,-252 459,-252 459,-216 675,-216 675,-252"/>
<text text-anchor="middle" x="567" y="-230.3" font-family="Times,serif" font-size="14.00">github.com/klauspost/compress/flate</text>
</g>
<!-- github.com/valyala/fasthttp&#45;&gt;github.com/klauspost/compress/flate -->
<g id="edge3" class="edge">
<title>github.com/valyala/fasthttp&#45;&gt;github.com/klauspost/compress/flate</title>
<path fill="none" stroke="black" d="M358.63,-171.06C387.08,-182.22 424.89,-196.38 459,-207 465.92,-209.15 473.12,-211.26 480.39,-213.29"/>
<polygon fill="black" stroke="black" points="479.73,-216.74 490.3,-216 481.58,-209.98 479.73,-216.74"/>
</g>
<!-- github.com/klauspost/compress/gzip -->
<g id="node5" class="node">
<title>github.com/klauspost/compress/gzip</title>
<polygon fill="none" stroke="black" points="675,-198 459,-198 459,-162 675,-162 675,-198"/>
<text text-anchor="middle" x="567" y="-176.3" font-family="Times,serif" font-size="14.00">github.com/klauspost/compress/gzip</text>
</g>
<!-- github.com/valyala/fasthttp&#45;&gt;github.com/klauspost/compress/gzip -->
<g id="edge4" class="edge">
<title>github.com/valyala/fasthttp&#45;&gt;github.com/klauspost/compress/gzip</title>
<path fill="none" stroke="black" d="M396.17,-161.8C412.85,-163.59 430.72,-165.51 448.36,-167.4"/>
<polygon fill="black" stroke="black" points="448.39,-170.92 458.71,-168.5 449.14,-163.96 448.39,-170.92"/>
</g>
<!-- github.com/klauspost/compress/zlib -->
<g id="node6" class="node">
<title>github.com/klauspost/compress/zlib</title>
<polygon fill="none" stroke="black" points="673.5,-144 460.5,-144 460.5,-108 673.5,-108 673.5,-144"/>
<text text-anchor="middle" x="567" y="-122.3" font-family="Times,serif" font-size="14.00">github.com/klauspost/compress/zlib</text>
</g>
<!-- github.com/valyala/fasthttp&#45;&gt;github.com/klauspost/compress/zlib -->
<g id="edge5" class="edge">
<title>github.com/valyala/fasthttp&#45;&gt;github.com/klauspost/compress/zlib</title>
<path fill="none" stroke="black" d="M396.17,-144.2C413.37,-142.35 431.83,-140.38 450,-138.43"/>
<polygon fill="black" stroke="black" points="450.49,-141.9 460.06,-137.35 449.75,-134.94 450.49,-141.9"/>
</g>
<!-- github.com/valyala/bytebufferpool -->
<g id="node7" class="node">
<title>github.com/valyala/bytebufferpool</title>
<polygon fill="none" stroke="black" points="670,-90 464,-90 464,-54 670,-54 670,-90"/>
<text text-anchor="middle" x="567" y="-68.3" font-family="Times,serif" font-size="14.00">github.com/valyala/bytebufferpool</text>
</g>
<!-- github.com/valyala/fasthttp&#45;&gt;github.com/valyala/bytebufferpool -->
<g id="edge6" class="edge">
<title>github.com/valyala/fasthttp&#45;&gt;github.com/valyala/bytebufferpool</title>
<path fill="none" stroke="black" d="M358.63,-134.94C387.08,-123.78 424.89,-109.62 459,-99 465.92,-96.85 473.12,-94.74 480.39,-92.71"/>
<polygon fill="black" stroke="black" points="481.58,-96.02 490.3,-90 479.73,-89.26 481.58,-96.02"/>
</g>
<!-- github.com/valyala/tcplisten -->
<g id="node9" class="node">
<title>github.com/valyala/tcplisten</title>
<polygon fill="none" stroke="black" points="652.5,-36 481.5,-36 481.5,0 652.5,0 652.5,-36"/>
<text text-anchor="middle" x="567" y="-14.3" font-family="Times,serif" font-size="14.00">github.com/valyala/tcplisten</text>
</g>
<!-- github.com/valyala/fasthttp/reuseport&#45;&gt;github.com/valyala/tcplisten -->
<g id="edge8" class="edge">
<title>github.com/valyala/fasthttp/reuseport&#45;&gt;github.com/valyala/tcplisten</title>
<path fill="none" stroke="black" d="M398.26,-53.94C421.9,-48.88 447.76,-43.34 471.93,-38.16"/>
<polygon fill="black" stroke="black" points="472.77,-41.56 481.82,-36.04 471.31,-34.71 472.77,-41.56"/>
</g>
</g>
</svg>
